<!--?xml version="1.0" encoding="UTF-8"?-->
<svg xmlns="http://www.w3.org/2000/svg" viewBox="0 0 1920 1080" width="1920" height="1080" preserveAspectRatio="xMidYMid slice">
  <defs>
    <!-- Paper tint -->
    <radialGradient id="paper" cx="50%" cy="40%" r="80%">
      <stop offset="0%" stop-color="#fff9f0"></stop>
      <stop offset="60%" stop-color="#fff4e5"></stop>
      <stop offset="100%" stop-color="#ffeccd"></stop>
    </radialGradient>

    <!-- Warm / Cool gradients -->
    <linearGradient id="warm" x1="0" y1="0" x2="1" y2="1">
      <stop offset="0" stop-color="#FFD166"></stop>
      <stop offset="1" stop-color="#FF7EB6"></stop>
    </linearGradient>
    <linearGradient id="cool" x1="1" y1="0" x2="0" y2="1">
      <stop offset="0" stop-color="#84DCC6"></stop>
      <stop offset="1" stop-color="#A1C4FD"></stop>
    </linearGradient>

    <!-- Wheat stroke -->
    <linearGradient id="wheatStroke" x1="0" y1="0" x2="1" y2="0">
      <stop offset="0" stop-color="#e1a85a" stop-opacity=".15"></stop>
      <stop offset="1" stop-color="#b97d2e" stop-opacity=".05"></stop>
    </linearGradient>

    <!-- Film grain -->
    <filter id="grain" x="-20%" y="-20%" width="140%" height="140%">
      <feTurbulence type="fractalNoise" baseFrequency="0.9" numOctaves="2" seed="8" result="t"></feTurbulence>
      <feColorMatrix type="matrix" values="0 0 0 0 1
                                           0 0 0 0 1
                                           0 0 0 0 1
                                           0 0 0 .06 0" in="t"></feColorMatrix>
    </filter>

    <!-- Glow for blobs -->
    <filter id="glow" x="-100%" y="-100%" width="300%" height="300%">
      <feGaussianBlur stdDeviation="30" result="b"></feGaussianBlur>
      <feMerge><feMergeNode in="b"></feMergeNode><feMergeNode in="SourceGraphic"></feMergeNode></feMerge>
    </filter>

    <!-- Reusable ribbons -->
    <path id="ribbon" d="M -100 150 C 200 50, 400 250, 700 120 S 1100 100, 1400 200 S 1800 120, 2100 180"></path>
    <path id="ribbon2" d="M -100 260 C 250 180, 500 280, 850 180 S 1300 220, 1650 140 S 2000 200, 2150 160"></path>

    <!-- Wheat group -->
    <g id="wheat">
      <path d="M0,0 C 10,-40 10,-80 0,-120" fill="none" stroke="url(#wheatStroke)" stroke-width="3"></path>
      <g fill="#e6b979" fill-opacity=".25" stroke="#d4a868" stroke-opacity=".2">
        <ellipse cx="0" cy="-20" rx="8" ry="10"></ellipse>
        <ellipse cx="0" cy="-40" rx="7" ry="9"></ellipse>
        <ellipse cx="0" cy="-60" rx="6" ry="8"></ellipse>
        <ellipse cx="0" cy="-80" rx="5" ry="7"></ellipse>
        <ellipse cx="0" cy="-100" rx="4" ry="6"></ellipse>
      </g>
    </g>

    <!-- Croissant glyph -->
    <g id="croissant">
      <path d="M0 0 C 40 -20, 90 -20, 130 0 C 120 15, 95 25, 65 25 C 35 25, 10 15, 0 0 Z" fill="#ffcf7a" stroke="#d9a85a" stroke-opacity=".5"></path>
      <path d="M18 4 c 10 -8, 32 -8, 42 0" stroke="#eab768" stroke-width="6" stroke-linecap="round"></path>
      <path d="M52 8 c 10 -8, 32 -8, 42 0" stroke="#eab768" stroke-width="6" stroke-linecap="round"></path>
      <path d="M84 10 c 10 -8, 32 -8, 42 0" stroke="#eab768" stroke-width="6" stroke-linecap="round"></path>
    </g>
  </defs>

  <!-- Base -->
  <rect width="100%" height="100%" fill="url(#paper)"></rect>

  <!-- Soft animated blobs -->
  <g filter="url(#glow)">
    <circle cx="300" cy="200" r="220" fill="url(#warm)" fill-opacity=".40">
      <animate attributeName="cx" values="260;340;260" dur="18s" repeatCount="indefinite"></animate>
      <animate attributeName="cy" values="220;180;220" dur="14s" repeatCount="indefinite"></animate>
      <animate attributeName="r" values="220;260;220" dur="22s" repeatCount="indefinite"></animate>
    </circle>
    <circle cx="1600" cy="240" r="260" fill="url(#cool)" fill-opacity=".35">
      <animate attributeName="cx" values="1550;1650;1550" dur="16s" repeatCount="indefinite"></animate>
      <animate attributeName="cy" values="240;280;240" dur="12s" repeatCount="indefinite"></animate>
    </circle>
    <circle cx="1100" cy="850" r="280" fill="url(#warm)" fill-opacity=".28">
      <animate attributeName="cx" values="1080;1160;1080" dur="19s" repeatCount="indefinite"></animate>
      <animate attributeName="cy" values="820;880;820" dur="17s" repeatCount="indefinite"></animate>
    </circle>
  </g>

  <!-- Flowing ribbons -->
  <g fill="none" stroke="url(#warm)" stroke-opacity=".45" stroke-width="8">
    <use href="#ribbon">
      <animateMotion dur="18s" repeatCount="indefinite" path="M0,0 h200"></animateMotion>
    </use>
  </g>
  <g fill="none" stroke="url(#cool)" stroke-opacity=".35" stroke-width="6">
    <use href="#ribbon2">
      <animateMotion dur="22s" repeatCount="indefinite" path="M0,0 h-220"></animateMotion>
    </use>
  </g>

  <!-- Wheat spikes -->
  <g opacity=".6">
    <use href="#wheat" transform="translate(300,980) rotate(-60)"></use>
    <use href="#wheat" transform="translate(520,940) rotate(-40) scale(1.2)"></use>
    <use href="#wheat" transform="translate(1720,920) rotate(-120) scale(1.1)"></use>
    <use href="#wheat" transform="translate(150,320)  rotate(-20)"></use>
    <use href="#wheat" transform="translate(1820,320) rotate(160)"></use>
  </g>

  <!-- Croissants drifting -->
  <g opacity=".25">
    <g transform="translate(1200,140)">
      <use href="#croissant">
        <animateTransform attributeName="transform" type="rotate" from="0 65 10" to="360 65 10" dur="40s" repeatCount="indefinite"></animateTransform>
      </use>
    </g>
    <g transform="translate(260,680) scale(1.2)">
      <use href="#croissant">
        <animateTransform attributeName="transform" type="rotate" from="360 65 10" to="0 65 10" dur="36s" repeatCount="indefinite"></animateTransform>
      </use>
    </g>
    <g transform="translate(1650,620) scale(0.9)">
      <use href="#croissant">
        <animateTransform attributeName="transform" type="rotate" from="0 65 10" to="360 65 10" dur="32s" repeatCount="indefinite"></animateTransform>
      </use>
    </g>
  </g>

  <!-- subtle grain overlay -->
  <rect width="100%" height="100%" filter="url(#grain)"></rect>
</svg>
